<svg xmlns="http://www.w3.org/2000/svg" viewBox="0 0 555.05 555.04"><defs><style>.cls-1{fill:#f7cb1a;}</style></defs><g id="Layer_2" data-name="Layer 2"><g id="Layer_1-2" data-name="Layer 1"><path class="cls-1" d="M212.64,277.56a64.89,64.89,0,1,0,64.9-64.88h0A65,65,0,0,0,212.64,277.56Zm117.78,0a52.91,52.91,0,1,1-52.91-52.91h0a53,53,0,0,1,52.9,52.91Z"/><circle class="cls-1" cx="277.52" cy="241.86" r="6.99"/><circle class="cls-1" cx="241.82" cy="277.56" r="6.99"/><circle class="cls-1" cx="277.52" cy="313.26" r="6.99"/><circle class="cls-1" cx="313.23" cy="277.56" r="6.99"/><path class="cls-1" d="M277.52,253.6a11.76,11.76,0,0,1-11.75-11.76c0-1.22,1-2,1.32-3.15a39.9,39.9,0,0,0-28.42,28.42c1.12-.35,1.93-1.32,3.15-1.32a11.75,11.75,0,0,1,0,23.5c-1.22,0-2-1-3.15-1.31a40,40,0,0,0,28.42,28.41c-.35-1.13-1.32-1.93-1.32-3.15a11.75,11.75,0,0,1,23.5,0c0,1.22-.95,2-1.31,3.15A39.93,39.93,0,0,0,316.36,288c-1.12.35-1.93,1.31-3.15,1.31a11.75,11.75,0,0,1,0-23.5c1.22,0,2,1,3.15,1.32A40,40,0,0,0,288,238.71c.34,1.13,1.31,1.93,1.31,3.15A11.77,11.77,0,0,1,277.52,253.6Zm14.2,24a14.2,14.2,0,1,1-14.2-14.2,14.2,14.2,0,0,1,14.2,14.2Z"/><path class="cls-1" d="M277.52,0C124.52,0,0,124.49,0,277.52S124.49,555,277.52,555,555.05,430.56,555.05,277.52,430.56,0,277.52,0Zm0,543.06C131.09,543.06,12,423.91,12,277.52S131.09,12,277.52,12,543.06,131.12,543.06,277.56,423.92,543.1,277.52,543.1Z"/><path class="cls-1" d="M348,124.48c11.12-21,20.66-46.75,24.37-81.66-1.28,2.47-6.87,13.39-8.18,15.84a233.17,233.17,0,0,0-173.21,0c-1.14-2.16-7-13.42-8.23-15.82C190.78,126.28,270.75,285.64,348,124.48ZM277.52,78a198.24,198.24,0,0,1,70.17,13q-71.16,180.66-140.31,0A198.08,198.08,0,0,1,277.52,78Z"/><path class="cls-1" d="M180.18,140C167.55,119.86,150,98.71,121.65,78.05c1.48,2.35,8.16,12.66,9.62,15a233.42,233.42,0,0,0-86.63,150l-17.82-.78C103.15,277,281.14,287.45,180.18,140Zm-75.46,37.78A198.72,198.72,0,0,1,151,123.5Q271.93,275.5,80.88,245a198.42,198.42,0,0,1,23.84-67.22Z"/><path class="cls-1" d="M109.73,293.06c-23.74.87-50.81,5.48-82.91,19.73,2.78-.14,15-.75,17.8-.84A233.43,233.43,0,0,0,131.26,462c-1.29,2-8.13,12.75-9.56,15C189.89,428.3,287.9,279.36,109.73,293.06Zm-5,84.26A199.27,199.27,0,0,1,80.87,310q192-28.69,70.17,121.52a198.56,198.56,0,0,1-46.32-54.2Z"/><path class="cls-1" d="M207.06,430.6c-11.12,21-20.65,46.75-24.37,81.68,1.28-2.49,6.88-13.41,8.19-15.85a233.42,233.42,0,0,0,173.23,0l8.24,15.8C364.26,428.81,284.26,269.47,207.06,430.6Zm70.46,46.49a199,199,0,0,1-70.17-13q71.15-180.67,140.3,0A198.91,198.91,0,0,1,277.52,477.09Z"/><path class="cls-1" d="M277.87,270.62c-.13,0-.22-.07-.35-.07a5.93,5.93,0,0,0-.73.16,6.52,6.52,0,0,0-1.57.31,6,6,0,0,0-1.08.53,6.93,6.93,0,0,0-1.16.78,7.76,7.76,0,0,0-.93,1.05,5.26,5.26,0,0,0-.58.67c-.07.12-.07.28-.14.4a7.51,7.51,0,0,0-.43,1.29,6.57,6.57,0,0,0-.27,1.39,3.15,3.15,0,0,0-.09.42,6.72,6.72,0,0,0,.18.87,7,7,0,0,0,.07.92,4.54,4.54,0,0,0,.21.45,5.83,5.83,0,0,0,.6,1.23,8.33,8.33,0,0,0,.7,1.05,7.16,7.16,0,0,0,1.13,1c.22.16.37.4.62.55s.27.07.39.13a9,9,0,0,0,1.33.44,7,7,0,0,0,1.36.28c.14,0,.27.08.41.08a7.63,7.63,0,0,0,.83-.17,5.77,5.77,0,0,0,1.43-.29,7.18,7.18,0,0,0,1.18-.58,6.74,6.74,0,0,0,1.09-.74,6.08,6.08,0,0,0,1-1.09c.2-.2.39-.42.57-.64s.07-.28.14-.4a7.51,7.51,0,0,0,.43-1.29,6.26,6.26,0,0,0,.29-1.43c0-.14.08-.25.08-.39a6.88,6.88,0,0,0-.15-.79,8.4,8.4,0,0,0-.07-1,4.16,4.16,0,0,0-.24-.47,5.7,5.7,0,0,0-.54-1.11,6.46,6.46,0,0,0-.4-.84c-.07-.08-.18-.14-.26-.22s-.09-.07-.11-.1a6.18,6.18,0,0,0-1-.91c-.25-.18-.41-.43-.67-.59h0c-.12-.06-.28-.06-.4-.13a6.51,6.51,0,0,0-1.22-.42A11.47,11.47,0,0,0,277.87,270.62Z"/><path class="cls-1" d="M374.85,415.1C387.48,435.22,405,456.36,433.39,477c-1.51-2.33-8.16-12.65-9.61-15a233.43,233.43,0,0,0,86.64-150c2.41.11,15.1.68,17.79.78C451.89,278.06,273.89,267.64,374.85,415.1Zm75.47-37.78A198.59,198.59,0,0,1,404,431.57q-120.9-151.92,70.15-121.5A199.07,199.07,0,0,1,450.32,377.32Z"/><path class="cls-1" d="M445.31,262c23.74-.87,50.8-5.49,82.91-19.73-2.79.15-15,.74-17.81.82a233.41,233.41,0,0,0-86.59-150c1.3-2,8.14-12.74,9.56-15C365.14,126.8,267.13,275.74,445.31,262Zm5-84.24A198.76,198.76,0,0,1,474.16,245q-192,28.75-70.16-121.48a198.36,198.36,0,0,1,46.32,54.27Z"/></g></g></svg>